<?xml version="1.0" encoding="utf-8"?>
<!-- Generator: Adobe Illustrator 20.0.0, SVG Export Plug-In . SVG Version: 6.00 Build 0)  -->
<svg version="1.1" id="Layer_1" xmlns="http://www.w3.org/2000/svg" xmlns:xlink="http://www.w3.org/1999/xlink" x="0px" y="0px"
	 viewBox="0 0 200 200" style="enable-background:new 0 0 200 200;" xml:space="preserve">
<style type="text/css">
	.st0{fill:#580C1E;}
	.st1{fill:none;}
	.st2{font-family:'Merriweather';}
	.st3{font-size:8px;}
</style>
<path d="M166.3-8.1"/>
<g>
	<path class="st0" d="M118.5,142.3l-16.6,7.6c-0.4-1-1.4-1.8-2.6-1.8c-1.2,0-2.2,0.7-2.6,1.7l-16.5-7.6l0.1,17.7l16.5-7.8
		c0.5,0.9,1.4,1.6,2.5,1.6c1.1,0,2.1-0.7,2.5-1.6l16.6,7.8L118.5,142.3z"/>
	<path class="st0" d="M140.5,117.2c3.1,1.3,4.7,4.6,3.9,8.1c-0.7,3-2.3,5.2-5,6.6c-4.3,2.2-8.9,2.9-13.7,2.7
		c-9.1-0.5-16.9-3.7-22.5-11.2c-1.2-1.7-2.1-3.5-3.2-5.3c0,0-0.2,0.1-0.2,0.1c-5.5,12.9-18.6,17.4-29.9,16.3
		c-3.4-0.3-6.6-1.1-9.6-2.8c-3.5-2-5.4-5.9-4.7-9.6c0.4-2.3,1.5-3.7,3.8-4.9c-0.2,1.1-0.4,2.1-0.5,3.1c-0.2,3.6,1.9,5.8,5.5,6
		c3.3,0.1,6.1-1,8-3.5c2.2-3,4.2-6.2,6.2-9.4c2.2-3.7,5.1-6.6,9.1-8.4c3.8-1.6,7.6-1.6,11.3,0.5c0.5,0.3,1.4,0.3,1.9,0
		c3.9-2.3,7.9-2.2,11.9-0.3c3.7,1.7,6.4,4.4,8.5,7.9c1.8,3.1,3.7,6.2,5.8,9c1.9,2.7,4.7,4.1,8.1,4.1c4.3,0,6.6-2.9,5.8-7.1
		C140.8,118.5,140.6,117.9,140.5,117.2z"/>
	<path class="st0" d="M103.6,89.7c0,7.1,6.2,12.9,13.8,12.9c7.6,0,13.8-5.8,13.8-12.9c0-7.1-6.2-12.9-13.8-12.9
		C109.8,76.8,103.6,82.6,103.6,89.7z M108.9,89.7c0-4.4,3.8-8,8.5-8c4.7,0,8.5,3.6,8.5,8c0,4.4-3.8,8-8.5,8
		C112.7,97.7,108.9,94.1,108.9,89.7z"/>
	<g>
		<path class="st1" d="M100,15.7c-0.4-0.6-0.7-1.1-1.1-1.7c-0.2,0-0.4,0-0.6,0c-0.7,1.5-1.4,3-2.1,4.5c0.1,0.1,0.2,0.1,0.3,0.2
			C97.6,17.7,98.8,16.7,100,15.7z"/>
		<path class="st1" d="M102.2,20.5c-0.7,0.6-1.9,1.5-1.9,1.5l-1.8,1.4c0,0-2.8,2.4-4.4,3.3c-3.7,2.2-4.2,6.1-5.8,9.5
			c3.8-2.8,11.8-9.3,15.6-12.1C103.3,22.8,102.8,21.7,102.2,20.5z"/>
		<path class="st1" d="M108,34.4L108,34.4c0.2-0.3,0.4-0.7,0.3-0.8c-0.5-1.3-1.9-4-1.9-4l-3.5,2.2c-2.6,1.8-9.4,7.4-11.9,9.4
			c-4.9,3.9-9.7,7.8-11.8,13.9c-0.8,2.2-1.9,4.3-2.9,6.5C83.2,54,99.8,40.5,108,34.4z"/>
		<path class="st1" d="M121.1,60.4c-2,1.5-5.9,4.4-5.9,4.4s-2.4,1.8-3.1,2.3c-2,1.5-4,3-5.8,4.6c-1,0.8-1.8,1.8-2.6,2.7
			c0.1,0.1,0.2,0.2,0.3,0.3c3.5-0.7,7.2-0.9,10.2-3.4c2.6-2.2,5.4-4.2,8.1-6.3c0.3-0.3,0.6-1,0.5-1.3
			C122.2,62.5,121.6,61.5,121.1,60.4z"/>
		<path class="st1" d="M102.6,53.2c1.8-1.4,5.5-4.2,7.5-5.7c0.1-0.1,0.1-0.2,0.2-0.2c0.9-0.8,1.8-1.5,2.7-2.3c0.2-0.2,0.4-0.8,0.3-1
			c-0.6-1.3-1.2-2.6-1.9-4.1c0,0-3.8,2.8-4.5,3.4c-3.5,2.7-15.5,12.3-18.7,15.3c-3.4,3.2-6.5,6.8-9.9,10.4c1.7,0.9,3.1,1.6,4.4,2.4
			c0.8,0.5,1.1,0.1,1.6-0.4c1.9-2.4,3.8-5,6-7.2C92.9,61,99.7,55.9,102.6,53.2z"/>
		<path class="st1" d="M113.9,58.3c1.2-1,2.5-1.9,3.7-3c0.3-0.3,0.6-0.9,0.5-1.2c-0.4-1.2-1-2.2-1.6-3.4c-1.6,1.2-3.1,2.3-4.8,3.5
			c0,0,0,0,0,0c-2.6,1.8-9.1,6.3-9.1,6.3s-4,3-4.4,3.5c-1.3,1.4-2.7,2.6-3.9,4c-1.6,1.9-3,3.8-4.6,6.1c2.1,0.3,3.7,0.5,5.3,0.6
			c0.4,0,1.1-0.3,1.4-0.6c2.1-3.1,4.6-5.8,7.6-8.2C106.3,63.9,111.3,60.2,113.9,58.3z"/>
		<path class="st0" d="M123.8,62.8c-2.6-5.3-5.1-10.6-7.6-15.9c-5.4-11.4-10.8-22.8-16.3-34.1h0c0,0,0,0,0,0
			c2.6-1.1,4.9-2.1,7.1-3.1c-0.2-0.5-0.4-1-0.7-1.6c-1.5,0.2-3.1,0.4-5.3,0.6c1.9-2.3,3.3-4,4.7-5.7c-0.3-0.4-0.5-0.7-0.8-1.1
			c-1.4,0.6-2.8,1.3-3.4,1.5c-1.3-1.2-2.5-2.3-3.8-3.5c-0.4,0.4-0.7,0.7-1.1,1.1c0.3,1.4,0.6,2.8,0.9,4.5c-2.5-1.4-4.2-5.2-7.9-1.6
			c2.4,1.5,4,2.4,5.9,3.6c-2.3,0.2-4,0.3-5.6,0.5c0,0.5,0.1,0.9,0.1,1.4c4.6,1,6.7,1.6,7.3,3.1c-0.1,0.1-0.1,0.2-0.1,0.2
			c-1.5,3.2-3,6.4-4.5,9.6c-6.1,13.1-12.1,26.2-18.2,39.4c-1.8,3.8-1.4,5.2,1.9,7.9c0.2,0.2,0.4,0.3,0.7,0.5
			c6.5,4.8,14.1,6.4,22.2,6.7c3-0.4,6-0.5,8.9-1.1c5.6-1.1,10.6-3.4,14.7-7.4C124.6,66.6,124.9,65,123.8,62.8z M98.3,14
			c0.2,0,0.4,0,0.6,0c0.4,0.6,0.7,1.1,1.1,1.7c-1.2,1-2.4,2-3.5,2.9c-0.1-0.1-0.2-0.1-0.3-0.2C96.9,16.9,97.6,15.4,98.3,14z
			 M94.1,26.7c1.6-0.9,4.4-3.3,4.4-3.3l1.8-1.4c0,0,1.2-0.9,1.9-1.5c0.6,1.2,1.1,2.3,1.7,3.6c-3.8,2.7-11.8,9.3-15.6,12.1
			C89.9,32.8,90.4,28.9,94.1,26.7z M76.4,61.5c1-2.2,2.1-4.3,2.9-6.5c2.1-6.1,6.9-10,11.8-13.9c2.5-1.9,9.3-7.5,11.9-9.4l3.5-2.2
			c0,0,1.3,2.7,1.9,4c0.1,0.2-0.1,0.6-0.3,0.8v0C99.8,40.5,83.2,54,76.4,61.5z M82.6,71.4c-1.3-0.8-2.6-1.4-4.4-2.4
			c3.4-3.6,6.5-7.2,9.9-10.4c3.2-3,15.2-12.6,18.7-15.3c0.7-0.6,4.5-3.4,4.5-3.4c0.7,1.5,1.4,2.8,1.9,4.1c0.1,0.3-0.1,0.8-0.3,1
			c-0.9,0.8-1.8,1.5-2.7,2.3c-0.1,0.1-0.1,0.1-0.2,0.2c-2,1.5-5.7,4.3-7.5,5.7c-2.9,2.6-9.7,7.7-12.5,10.5c-2.2,2.2-4,4.8-6,7.2
			C83.7,71.5,83.4,71.8,82.6,71.4z M96.3,74c-0.2,0.4-0.9,0.7-1.4,0.6c-1.6-0.1-3.3-0.4-5.3-0.6c1.7-2.2,3.1-4.2,4.6-6.1
			c1.2-1.4,2.7-2.6,3.9-4c0.4-0.5,4.4-3.5,4.4-3.5s6.6-4.5,9.1-6.3c0,0,0,0,0,0c1.7-1.2,3.2-2.4,4.8-3.5c0.6,1.2,1.2,2.3,1.6,3.4
			c0.1,0.3-0.2,0.9-0.5,1.2c-1.2,1-2.5,2-3.7,3c-2.6,2-7.6,5.6-10,7.5C100.9,68.1,98.4,70.9,96.3,74z M122.1,64.9
			c-2.7,2.1-5.5,4.1-8.1,6.3c-2.9,2.6-6.6,2.7-10.2,3.4c-0.1-0.1-0.2-0.2-0.3-0.3c0.9-0.9,1.7-1.9,2.6-2.7c1.9-1.6,3.9-3.1,5.8-4.6
			c0.7-0.5,3.1-2.3,3.1-2.3s3.9-2.9,5.9-4.4c0.5,1.1,1.1,2.1,1.5,3.2C122.7,64,122.4,64.7,122.1,64.9z"/>
	</g>
</g>
<g>
	<path class="st0" d="M0.8,186.8h3v-11.4H0.6v-2h9.1c0.9,0,1.7,0,2.4,0c0.7,0,1.4,0.1,1.9,0.2c0.7,0.1,1.3,0.3,1.7,0.6
		s0.9,0.6,1.2,0.9c0.3,0.4,0.5,0.8,0.6,1.3c0.1,0.5,0.2,1,0.2,1.5c0,0.5-0.1,0.9-0.2,1.4c-0.2,0.4-0.4,0.9-0.7,1.2
		c-0.3,0.4-0.7,0.7-1.1,1.1c-0.4,0.3-1,0.6-1.5,0.8c-0.6,0.2-1.3,0.3-2.1,0.4c-0.8,0.1-1.6,0.1-2.5,0.1H6.4v3.9h4.1v2H0.8V186.8z
		 M1.2,176.3h1.8v0.5H1.2V176.3z M11.4,189.6v-2.1h0.5v2.6H1.5v-0.5H11.4z M10.2,180.9c0.7,0,1.2,0,1.7,0c0.5,0,0.9-0.1,1.3-0.2
		c0.7-0.2,1.1-0.5,1.4-0.9c0.3-0.4,0.4-1,0.4-1.6c0-0.5-0.1-0.9-0.3-1.3c-0.2-0.3-0.4-0.6-0.8-0.8c-0.4-0.2-0.9-0.4-1.5-0.5
		c-0.6-0.1-1.3-0.1-2.2-0.1H6.4v5.5H10.2z M7.2,183.8h1.9c0.7,0,1.3,0,1.8,0c0.5,0,0.9,0,1.3-0.1c0.4,0,0.7-0.1,1.1-0.1
		c0.3-0.1,0.6-0.1,0.9-0.2c0.7-0.2,1.3-0.4,1.9-0.8c0.6-0.3,1-0.7,1.4-1.2s0.7-1,0.9-1.6c0.2-0.6,0.3-1.2,0.3-1.9
		c0-0.8-0.2-1.6-0.5-2.2c-0.3-0.6-0.8-1.2-1.4-1.7c0.4,0.2,0.7,0.4,1,0.7c0.3,0.3,0.6,0.6,0.8,0.9c0.2,0.3,0.4,0.7,0.5,1.1
		c0.1,0.4,0.2,0.8,0.2,1.1c0,0.7-0.1,1.4-0.3,2.1c-0.2,0.6-0.6,1.2-1,1.7s-1,1-1.6,1.3c-0.6,0.4-1.4,0.7-2.2,0.8
		c-0.2,0.1-0.5,0.1-0.8,0.2c-0.3,0-0.7,0.1-1.1,0.1c-0.4,0-0.9,0-1.4,0.1c-0.5,0-1.1,0-1.7,0H7.7v1.8H7.2V183.8z M7.2,176.3h2.9
		c1.2,0,2.1,0.1,2.7,0.2c0.6,0.1,1,0.4,1.2,0.7c-0.2-0.1-0.3-0.1-0.6-0.2c-0.2-0.1-0.5-0.1-0.8-0.1c-0.3,0-0.7-0.1-1.1-0.1
		c-0.4,0-0.9,0-1.5,0H7.7v3.5H7.2V176.3z"/>
	<path class="st0" d="M20.4,186.9h2.5V179h-2.5v-2.1h5v2.1c0.2-0.3,0.5-0.6,0.9-0.9c0.3-0.3,0.7-0.6,1.1-0.8
		c0.4-0.2,0.9-0.4,1.4-0.5s1-0.2,1.6-0.2c0.2,0,0.4,0,0.6,0c0.3,0,0.5,0,0.7,0.1v2.4c-0.3-0.1-0.5-0.1-0.8-0.1c-0.3,0-0.5,0-0.8,0
		c-0.6,0-1.2,0.1-1.8,0.3c-0.6,0.2-1,0.5-1.5,0.9c-0.4,0.4-0.8,0.9-1.1,1.5c-0.3,0.6-0.4,1.2-0.5,2v3.4h4.2v1.8h-9.2V186.9z
		 M21.1,179.8h1.4v0.5h-1.4V179.8z M30.4,189.6v-2h0.5v2.5h-9.8v-0.5H30.4z M26.2,184.6c0-0.8,0.1-1.5,0.3-2.1
		c0.2-0.6,0.5-1.1,0.8-1.5s0.8-0.7,1.3-1c0.5-0.2,1-0.3,1.7-0.3c0.1,0,0.3,0,0.5,0c0.2,0,0.4,0.1,0.6,0.1c0.2,0,0.4,0.1,0.7,0.2
		c0.2,0.1,0.4,0.1,0.6,0.2v-2.9h0.5v3.5c-0.2-0.1-0.4-0.2-0.7-0.3c-0.3-0.1-0.5-0.1-0.8-0.2c-0.3-0.1-0.5-0.1-0.7-0.1
		c-0.2,0-0.5,0-0.6,0c-0.6,0-1.1,0.1-1.5,0.3c-0.4,0.2-0.8,0.5-1.1,0.8c-0.3,0.4-0.5,0.8-0.7,1.4c-0.2,0.5-0.2,1.1-0.2,1.8v1.7h-0.5
		V184.6z"/>
	<path class="st0" d="M33.9,183c0-0.9,0.2-1.7,0.5-2.5c0.4-0.8,0.9-1.5,1.5-2.1c0.7-0.6,1.4-1.1,2.3-1.4c0.9-0.3,1.9-0.5,3-0.5
		c1.1,0,2.2,0.2,3.1,0.5c0.9,0.3,1.7,0.8,2.3,1.3c0.6,0.6,1.1,1.3,1.4,2c0.3,0.8,0.5,1.6,0.5,2.6c0,0.9-0.2,1.7-0.5,2.5
		c-0.4,0.8-0.9,1.4-1.5,2s-1.5,1-2.4,1.3c-0.9,0.3-2,0.5-3.1,0.5c-1.1,0-2-0.2-2.9-0.5c-0.9-0.3-1.6-0.8-2.3-1.4
		c-0.6-0.6-1.1-1.2-1.5-2C34.1,184.6,33.9,183.8,33.9,183z M35.7,188.2c0.7,0.6,1.6,1,2.5,1.3c0.9,0.3,1.9,0.5,3.1,0.5
		c1.1,0,2.1-0.2,3.1-0.5c1-0.3,1.8-0.8,2.6-1.4c0.7-0.6,1.3-1.3,1.8-2.2c0.4-0.9,0.7-1.9,0.7-3c0-0.6-0.1-1.1-0.2-1.7
		c-0.1-0.6-0.3-1.1-0.6-1.6c-0.3-0.5-0.6-1-0.9-1.4c-0.4-0.4-0.8-0.8-1.2-1.1c0.5,0.2,1,0.6,1.4,1c0.4,0.4,0.8,0.9,1.1,1.4
		c0.3,0.5,0.5,1.1,0.7,1.7c0.2,0.6,0.2,1.2,0.2,1.9c0,0.8-0.1,1.5-0.3,2.2c-0.2,0.7-0.5,1.3-0.9,1.9s-0.8,1-1.4,1.5
		c-0.5,0.4-1.1,0.8-1.7,1.1c-0.6,0.3-1.3,0.5-2,0.6c-0.7,0.1-1.4,0.2-2.2,0.2c-0.6,0-1.2-0.1-1.8-0.2c-0.6-0.1-1.1-0.3-1.6-0.4
		c-0.5-0.2-0.9-0.4-1.3-0.7C36.3,188.9,36,188.6,35.7,188.2z M36.5,183c0,0.6,0.1,1.2,0.3,1.7s0.6,1,1,1.3c0.4,0.4,0.9,0.7,1.5,0.9
		s1.2,0.3,1.9,0.3c0.7,0,1.4-0.1,2-0.3c0.6-0.2,1.1-0.5,1.5-0.9c0.4-0.4,0.8-0.8,1-1.3c0.2-0.5,0.3-1.1,0.3-1.7
		c0-0.6-0.1-1.2-0.3-1.7c-0.2-0.5-0.6-1-1-1.4c-0.4-0.4-0.9-0.7-1.5-1c-0.6-0.2-1.2-0.4-1.9-0.4c-0.7,0-1.4,0.1-2,0.4
		c-0.6,0.2-1.1,0.6-1.5,1c-0.4,0.4-0.7,0.9-1,1.4C36.6,181.7,36.5,182.3,36.5,183z M37.3,183c0-0.5,0.1-1,0.3-1.5
		c0.2-0.5,0.5-0.8,0.8-1.2c0.4-0.3,0.8-0.6,1.3-0.8c0.5-0.2,1-0.3,1.6-0.3c0.4,0,0.7,0,1.1,0.1c0.4,0.1,0.7,0.2,1,0.4
		c0.3,0.2,0.6,0.4,0.8,0.6c0.2,0.2,0.4,0.5,0.6,0.8c-0.5-0.5-1-0.9-1.6-1.1c-0.6-0.2-1.2-0.3-1.9-0.3c-0.5,0-1,0.1-1.4,0.3
		c-0.4,0.2-0.8,0.4-1.1,0.7c-0.3,0.3-0.6,0.6-0.7,1c-0.2,0.4-0.3,0.8-0.3,1.3c0,0.4,0,0.7,0.1,1c0.1,0.3,0.2,0.6,0.4,0.9
		c0.2,0.3,0.5,0.5,0.8,0.7c0.3,0.2,0.8,0.4,1.3,0.6c-0.5,0-0.9-0.1-1.3-0.3s-0.7-0.4-1-0.7c-0.3-0.3-0.5-0.6-0.6-1
		C37.3,183.9,37.3,183.5,37.3,183z"/>
	<path class="st0" d="M52.8,196.5V179h-2.5v-2.1h5v1.6c0.6-0.6,1.3-1.1,2.1-1.5c0.8-0.4,1.7-0.5,2.7-0.5c1.1,0,2,0.2,2.8,0.5
		c0.8,0.3,1.5,0.8,2.1,1.4c0.6,0.6,1,1.2,1.3,1.9c0.3,0.7,0.4,1.5,0.4,2.2c0,1-0.2,1.9-0.5,2.7c-0.3,0.8-0.8,1.4-1.3,2
		c-0.6,0.5-1.3,1-2.1,1.2c-0.8,0.3-1.7,0.4-2.7,0.4c-1,0-1.9-0.2-2.8-0.5c-0.8-0.3-1.5-0.8-2.1-1.4v9.5h3.1v1.8h-7.6v-1.8H52.8z
		 M50.9,179.8h1.4v0.5h-1.4V179.8z M59.2,199.2v-2h0.5v2.5h-8.2v-0.5H59.2z M55.3,182.8c0,0.7,0.1,1.2,0.4,1.8
		c0.3,0.5,0.6,1,1.1,1.3c0.4,0.4,1,0.6,1.6,0.8c0.6,0.2,1.2,0.3,1.9,0.3c0.6,0,1.2-0.1,1.7-0.3c0.5-0.2,0.9-0.5,1.3-0.9
		c0.3-0.4,0.6-0.8,0.8-1.4s0.3-1.1,0.3-1.8c0-0.6-0.1-1.2-0.3-1.7c-0.2-0.5-0.5-1-0.9-1.3c-0.4-0.4-0.8-0.7-1.4-0.9
		c-0.5-0.2-1.1-0.3-1.7-0.3c-0.7,0-1.3,0.1-1.8,0.3c-0.6,0.2-1.1,0.5-1.5,0.9c-0.4,0.4-0.7,0.8-1,1.4
		C55.4,181.5,55.3,182.1,55.3,182.8z M56.1,188.7c0.6,0.3,1.2,0.6,1.9,0.8c0.7,0.2,1.5,0.3,2.2,0.3c1,0,2-0.2,2.9-0.5
		s1.7-0.8,2.3-1.4c0.7-0.6,1.2-1.4,1.6-2.3c0.4-0.9,0.6-1.9,0.6-3.1c0-0.5-0.1-1-0.2-1.6s-0.3-1.1-0.6-1.6c-0.3-0.5-0.6-1-0.9-1.4
		c-0.4-0.4-0.8-0.8-1.3-1.1c0.6,0.3,1.1,0.6,1.5,1.1c0.4,0.4,0.8,0.9,1.1,1.4s0.5,1.1,0.7,1.6c0.1,0.6,0.2,1.1,0.2,1.6
		c0,1.2-0.2,2.2-0.5,3.2c-0.4,0.9-0.9,1.7-1.6,2.4c-0.7,0.7-1.5,1.2-2.5,1.6c-1,0.4-2.1,0.5-3.3,0.5c-0.3,0-0.6,0-1-0.1
		c-0.3,0-0.6-0.1-1-0.2c-0.3-0.1-0.6-0.1-0.9-0.2s-0.6-0.2-0.8-0.3v6.4h-0.5V188.7z M56.1,182.8c0-0.5,0.1-0.9,0.3-1.3
		s0.4-0.8,0.8-1.1c0.3-0.3,0.7-0.6,1.2-0.8c0.5-0.2,1-0.3,1.6-0.3c0.6,0,1.2,0.1,1.6,0.3c0.5,0.2,0.8,0.5,1.1,0.9
		c-0.5-0.3-0.9-0.5-1.4-0.6c-0.4-0.1-0.9-0.1-1.3-0.1c-0.5,0-1,0.1-1.4,0.3c-0.4,0.2-0.8,0.4-1,0.7c-0.3,0.3-0.5,0.6-0.7,1
		c-0.2,0.4-0.2,0.7-0.2,1.1c0,0.7,0.2,1.4,0.5,1.9c0.4,0.5,0.9,1,1.7,1.4c-0.4-0.1-0.8-0.2-1.1-0.4c-0.3-0.2-0.6-0.4-0.9-0.7
		c-0.2-0.3-0.4-0.6-0.6-1C56.2,183.6,56.1,183.2,56.1,182.8z"/>
	<path class="st0" d="M69.2,183c0-0.9,0.2-1.7,0.5-2.5c0.3-0.8,0.8-1.5,1.4-2.1c0.6-0.6,1.4-1.1,2.2-1.4c0.9-0.4,1.9-0.5,3.1-0.5
		c1.1,0,2.1,0.2,3,0.5c0.9,0.3,1.6,0.8,2.2,1.4c0.6,0.6,1.1,1.3,1.4,2.2c0.3,0.9,0.5,1.9,0.5,3H71.7c0.1,0.6,0.2,1.1,0.5,1.6
		c0.3,0.5,0.7,0.8,1.1,1.2c0.4,0.3,1,0.6,1.5,0.7c0.6,0.2,1.2,0.2,1.8,0.2c0.5,0,1,0,1.5-0.1c0.5-0.1,1-0.2,1.5-0.4
		c0.5-0.1,0.9-0.3,1.2-0.5c0.4-0.2,0.6-0.4,0.8-0.6h0.4l1.1,1.3c-0.8,0.7-1.8,1.3-2.9,1.6c-1.1,0.4-2.4,0.6-3.8,0.6
		c-1.2,0-2.3-0.2-3.2-0.5c-0.9-0.3-1.7-0.7-2.3-1.3c-0.6-0.5-1.1-1.2-1.4-1.9C69.4,184.7,69.2,183.9,69.2,183z M70.6,188.2
		c0.7,0.6,1.6,1,2.6,1.3c1,0.3,2.1,0.5,3.4,0.5c1.3,0,2.4-0.2,3.5-0.5c1.1-0.3,2.1-0.8,3-1.4l0.3,0.4c-1,0.7-2,1.2-3.1,1.5
		c-1.1,0.3-2.3,0.4-3.5,0.4c-1.6,0-2.9-0.2-3.9-0.6C71.9,189.5,71.1,188.9,70.6,188.2z M80.8,182c-0.1-0.6-0.3-1.1-0.6-1.5
		c-0.3-0.4-0.6-0.8-1-1.1c-0.4-0.3-0.8-0.5-1.3-0.7c-0.5-0.2-1-0.2-1.6-0.2c-0.6,0-1.2,0.1-1.7,0.3c-0.5,0.2-1,0.4-1.3,0.7
		c-0.4,0.3-0.7,0.7-1,1.1c-0.3,0.4-0.4,0.9-0.5,1.4H80.8z M84.2,184.4c0-0.1,0-0.3,0-0.4c0-0.1,0-0.3,0-0.5c0-0.7-0.1-1.4-0.2-2
		c-0.1-0.6-0.3-1.2-0.6-1.8c-0.3-0.5-0.6-1-1-1.5c-0.4-0.5-0.8-0.8-1.3-1.2c0.5,0.2,1,0.5,1.4,0.9c0.4,0.4,0.8,0.8,1.1,1.4
		c0.3,0.5,0.6,1.1,0.7,1.8c0.2,0.7,0.3,1.5,0.3,2.3c0,0.1,0,0.1,0,0.2c0,0.1,0,0.2,0,0.3c0,0.1,0,0.2,0,0.4c0,0.1,0,0.3,0,0.4H73.7
		c0.1,0.3,0.4,0.5,0.8,0.8c0.4,0.3,0.9,0.5,1.5,0.7c-0.4,0-0.7,0-1.1-0.1c-0.3-0.1-0.6-0.2-0.9-0.4c-0.3-0.2-0.5-0.4-0.7-0.6
		c-0.2-0.2-0.4-0.5-0.5-0.8H84.2z M72.9,181.4c0.3-0.7,0.7-1.2,1.3-1.6c0.6-0.4,1.3-0.6,2.1-0.6c0.3,0,0.7,0,1,0.1
		c0.3,0.1,0.6,0.1,0.9,0.3c0.3,0.1,0.5,0.3,0.7,0.4c0.2,0.2,0.4,0.4,0.5,0.6c-0.4-0.3-0.9-0.5-1.4-0.7c-0.5-0.1-1-0.2-1.6-0.2
		c-0.7,0-1.3,0.1-1.8,0.4c-0.5,0.3-0.9,0.7-1.2,1.3H72.9z"/>
	<path class="st0" d="M86.3,186.9h2.5V179h-2.5v-2.1h5v2.1c0.2-0.3,0.5-0.6,0.9-0.9c0.3-0.3,0.7-0.6,1.1-0.8
		c0.4-0.2,0.9-0.4,1.4-0.5c0.5-0.1,1-0.2,1.6-0.2c0.2,0,0.4,0,0.6,0c0.3,0,0.5,0,0.7,0.1v2.4c-0.3-0.1-0.5-0.1-0.8-0.1
		c-0.3,0-0.5,0-0.8,0c-0.6,0-1.2,0.1-1.8,0.3c-0.6,0.2-1,0.5-1.5,0.9c-0.4,0.4-0.8,0.9-1.1,1.5c-0.3,0.6-0.4,1.2-0.5,2v3.4h4.2v1.8
		h-9.2V186.9z M87,179.8h1.4v0.5H87V179.8z M96.3,189.6v-2h0.5v2.5H87v-0.5H96.3z M92.1,184.6c0-0.8,0.1-1.5,0.3-2.1
		c0.2-0.6,0.5-1.1,0.8-1.5s0.8-0.7,1.3-1c0.5-0.2,1-0.3,1.7-0.3c0.1,0,0.3,0,0.5,0c0.2,0,0.4,0.1,0.6,0.1c0.2,0,0.4,0.1,0.7,0.2
		c0.2,0.1,0.4,0.1,0.6,0.2v-2.9H99v3.5c-0.2-0.1-0.4-0.2-0.7-0.3c-0.3-0.1-0.5-0.1-0.8-0.2c-0.3-0.1-0.5-0.1-0.7-0.1
		c-0.2,0-0.5,0-0.6,0c-0.6,0-1.1,0.1-1.5,0.3c-0.4,0.2-0.8,0.5-1.1,0.8c-0.3,0.4-0.5,0.8-0.7,1.4c-0.2,0.5-0.2,1.1-0.2,1.8v1.7h-0.5
		V184.6z"/>
	<path class="st0" d="M108,186.9h2.5v-13.4H108v-2h5v7.2c0.2-0.3,0.5-0.6,0.9-0.9c0.3-0.3,0.7-0.5,1.1-0.7c0.4-0.2,0.9-0.4,1.4-0.5
		c0.5-0.1,1-0.2,1.5-0.2c0.8,0,1.5,0.1,2.2,0.4c0.7,0.2,1.2,0.6,1.7,1.1c0.5,0.5,0.8,1.1,1.1,1.9c0.3,0.8,0.4,1.7,0.4,2.7v4.3h2.5
		v1.8h-7v-1.8h2v-3.2c0-0.7,0-1.3-0.1-1.8c-0.1-0.5-0.1-0.9-0.2-1.2c-0.1-0.4-0.3-0.7-0.5-1c-0.2-0.3-0.5-0.5-0.7-0.6
		c-0.3-0.2-0.6-0.3-0.9-0.4c-0.3-0.1-0.7-0.1-1-0.1c-0.4,0-0.8,0.1-1.2,0.2c-0.4,0.1-0.8,0.4-1.2,0.6c-0.4,0.3-0.7,0.6-1.1,0.9
		c-0.3,0.4-0.6,0.8-0.8,1.2v5.4h2v1.8h-7V186.9z M108.7,174.4h1.4v0.5h-1.4V174.4z M115.8,189.6v-2h0.5v2.5h-7.6v-0.5H115.8z
		 M113.8,172.2h0.5v4.5c-0.1,0-0.1,0.1-0.2,0.1c-0.1,0.1-0.2,0.1-0.2,0.2V172.2z M113.8,181.9c0.2-0.4,0.4-0.7,0.7-1
		c0.3-0.3,0.6-0.5,0.9-0.8c0.3-0.2,0.6-0.4,1-0.5c0.3-0.1,0.7-0.2,1-0.2c0.5,0,1,0.1,1.3,0.3c0.3,0.2,0.6,0.5,0.7,0.8
		c-0.2-0.2-0.5-0.3-0.9-0.5c-0.3-0.1-0.7-0.2-1.2-0.2c-0.3,0-0.6,0.1-0.9,0.2c-0.3,0.1-0.6,0.3-0.9,0.5c-0.3,0.2-0.5,0.4-0.7,0.7
		c-0.2,0.2-0.4,0.5-0.5,0.8v4.2h-0.5V181.9z M126.6,189.6v-2h0.5v2.5h-7.6v-0.5H126.6z M124,182.7c0-0.7-0.1-1.4-0.2-2
		c-0.1-0.6-0.3-1.2-0.5-1.7c-0.2-0.5-0.5-0.9-0.8-1.3c-0.3-0.4-0.7-0.6-1.1-0.9c0.5,0.1,1,0.4,1.3,0.7c0.4,0.3,0.7,0.8,0.9,1.3
		c0.2,0.5,0.4,1.1,0.5,1.8c0.1,0.7,0.2,1.4,0.2,2.2v3.4H124V182.7z"/>
	<path class="st0" d="M129.2,186.9h3.1l-0.3-7.9h-2.8v-2.1h5.3v10h2.7v1.8h-7.9V186.9z M129.9,179.8h1.6v0.5h-1.6V179.8z
		 M137.9,189.6v-2h0.5v2.5h-8.5v-0.5H137.9z M131.6,171.4h2.8v2.5h-2.8V171.4z M132.3,174.7h3V172h0.5v3.1h-3.4V174.7z M135.2,177.5
		h0.5v8.7h-0.5V177.5z"/>
	<path class="st0" d="M150.4,196.1c-0.3,0.4-0.6,0.7-1,1c-0.4,0.3-0.7,0.5-1.1,0.7c-0.4,0.2-0.8,0.3-1.2,0.4
		c-0.4,0.1-0.8,0.1-1.1,0.1c-0.6,0-1.2-0.1-1.7-0.3c-0.5-0.2-1-0.5-1.4-0.8c-0.4-0.3-0.7-0.7-1-1.2c-0.3-0.5-0.5-0.9-0.6-1.5
		c0-0.2-0.1-0.5-0.1-0.8c0-0.3-0.1-0.7-0.1-1.1c0-0.4-0.1-0.8-0.1-1.2c0-0.4,0-0.8,0-1.2v-13.3h5.2v2.1h-2.7v13.1
		c0,0.5,0,0.9,0.1,1.3c0,0.4,0.1,0.7,0.2,1c0.1,0.3,0.2,0.6,0.4,0.8c0.2,0.2,0.3,0.4,0.5,0.5c0.2,0.1,0.4,0.2,0.6,0.3
		c0.2,0.1,0.4,0.1,0.6,0.1c0.4,0,0.7,0,1-0.1c0.3-0.1,0.6-0.2,0.8-0.3c0.3-0.1,0.5-0.3,0.7-0.5c0.2-0.2,0.5-0.5,0.7-0.8L150.4,196.1
		z M149.2,198.6c-0.3,0.2-0.5,0.4-0.9,0.6c-0.3,0.2-0.7,0.3-1.1,0.4c-0.4,0.1-0.9,0.1-1.4,0.1c-0.9,0-1.7-0.2-2.5-0.5
		c-0.8-0.3-1.4-0.8-1.9-1.5s-1-1.4-1.3-2.3c-0.3-0.9-0.4-1.9-0.4-3.1v-14.7h0.5v14.7c0,1,0.1,2,0.4,2.8c0.3,0.8,0.6,1.6,1.1,2.2
		c0.5,0.6,1.1,1.1,1.8,1.4c0.7,0.3,1.5,0.5,2.4,0.5c0.4,0,0.7,0,1.1-0.1c0.4-0.1,0.7-0.1,1.1-0.3c0.4-0.1,0.7-0.2,1-0.4
		c0.3-0.2,0.6-0.3,0.9-0.5C149.7,198.1,149.5,198.3,149.2,198.6z M147.8,194.7c-0.1,0.1-0.2,0.2-0.3,0.3c-0.1,0.1-0.3,0.2-0.5,0.2
		c-0.2,0.1-0.4,0.1-0.5,0.2c-0.2,0-0.4,0.1-0.5,0.1c0.1,0,0.3-0.1,0.4-0.2c0.2-0.1,0.3-0.2,0.5-0.3c0.1-0.1,0.3-0.2,0.4-0.3
		c0.1-0.1,0.2-0.2,0.3-0.4L147.8,194.7z M145.4,180.3h-1.5v-0.5h1.5V180.3z M143.7,173.8h-2.8v-2.5h2.8V173.8z M143,175.1h-3.4V172
		h0.5v2.6h3V175.1z"/>
	<path class="st0" d="M150,186.9h3.1l-0.3-7.9H150v-2.1h5.3v10h2.7v1.8H150V186.9z M150.7,179.8h1.6v0.5h-1.6V179.8z M158.8,189.6
		v-2h0.5v2.5h-8.5v-0.5H158.8z M152.5,171.4h2.8v2.5h-2.8V171.4z M153.2,174.7h3V172h0.5v3.1h-3.4V174.7z M156.1,177.5h0.5v8.7h-0.5
		V177.5z"/>
	<path class="st0" d="M161.5,186.9h2.5V179h-2.5v-2.1h5v1.9c0.2-0.3,0.5-0.6,0.9-0.9c0.3-0.3,0.7-0.5,1.1-0.7
		c0.4-0.2,0.9-0.4,1.4-0.5c0.5-0.1,1-0.2,1.5-0.2c0.8,0,1.5,0.1,2.2,0.4c0.7,0.2,1.2,0.6,1.7,1.1c0.5,0.5,0.8,1.1,1.1,1.9
		c0.3,0.8,0.4,1.7,0.4,2.7v4.3h2.5v1.8h-7v-1.8h2v-3.2c0-0.7,0-1.3-0.1-1.8c-0.1-0.5-0.1-0.9-0.2-1.2c-0.1-0.4-0.3-0.7-0.5-1
		c-0.2-0.3-0.5-0.5-0.7-0.6c-0.3-0.2-0.6-0.3-0.9-0.4c-0.3-0.1-0.7-0.1-1-0.1c-0.4,0-0.8,0.1-1.2,0.2c-0.4,0.1-0.8,0.4-1.2,0.6
		c-0.4,0.3-0.7,0.6-1.1,0.9c-0.3,0.4-0.6,0.8-0.8,1.2v5.4h2v1.8h-7V186.9z M162.2,179.8h1.4v0.5h-1.4V179.8z M169.3,189.6v-2h0.5
		v2.5h-7.6v-0.5H169.3z M167.3,181.9c0.2-0.4,0.4-0.7,0.7-1c0.3-0.3,0.6-0.5,0.9-0.8c0.3-0.2,0.6-0.4,1-0.5c0.3-0.1,0.7-0.2,1-0.2
		c0.5,0,1,0.1,1.3,0.3c0.3,0.2,0.6,0.5,0.7,0.8c-0.2-0.2-0.5-0.3-0.8-0.5c-0.3-0.1-0.7-0.2-1.2-0.2c-0.3,0-0.6,0.1-0.9,0.2
		s-0.6,0.3-0.9,0.5c-0.3,0.2-0.5,0.4-0.8,0.7c-0.2,0.3-0.4,0.5-0.5,0.8v4.1h-0.5V181.9z M180.1,189.6v-2h0.5v2.5h-7.6v-0.5H180.1z
		 M177.5,182.7c0-0.7-0.1-1.4-0.2-2c-0.1-0.6-0.3-1.2-0.5-1.7c-0.2-0.5-0.5-0.9-0.8-1.3c-0.3-0.4-0.7-0.6-1.1-0.9
		c0.5,0.1,1,0.4,1.3,0.7c0.4,0.3,0.7,0.8,0.9,1.3c0.2,0.5,0.4,1.1,0.5,1.8c0.1,0.7,0.2,1.4,0.2,2.2v3.4h-0.5V182.7z"/>
	<path class="st0" d="M181.5,186.9h2.1l5.1-4.1l-4.3-4.1h-2.7v-1.8h7.6v1.8h-1.6l2.9,2.8l3.3-2.8h-2.1v-1.8h6.9v1.8h-1.7l-5.2,4.2
		l4.3,4h2.7v1.8h-7.7v-1.8h1.7l-2.9-2.8l-3.2,2.8h2.1v1.8h-7.4V186.9z M189.7,189.6v-2h0.5v2.5h-8v-0.5H189.7z M182.5,179.6h2.1
		l0.5,0.5h-2.6V179.6z M190.3,185.1l0.3,0.3l-0.9,0.8H189L190.3,185.1z M190.1,179.6v-2h0.5v2l0.8,0.7l-0.3,0.3l-1.1-1.1H190.1z
		 M199.7,189.6v-2h0.5v2.5h-8.3v-0.5H199.7z M197.5,179.6h2.1v-2h0.5v2.5h-2.4L194,183l3.4,3.2h-0.6l-3.5-3.2L197.5,179.6z"/>
</g>
<rect x="150.7" y="192.1" class="st1" width="48.4" height="7.7"/>
<text transform="matrix(1 0 0 1 151.8658 198.4367)" class="st0 st2 st3">Productions</text>
</svg>
