<?xml version="1.0" encoding="utf-8"?>
<!-- Generator: Adobe Illustrator 20.1.0, SVG Export Plug-In . SVG Version: 6.00 Build 0)  -->
<svg version="1.1" id="Layer_1" xmlns="http://www.w3.org/2000/svg" xmlns:xlink="http://www.w3.org/1999/xlink" x="0px" y="0px"
	 viewBox="0 0 100 100" style="enable-background:new 0 0 100 100;" xml:space="preserve">
<style type="text/css">
	.st0{fill:#580C1E;}
	.st1{fill:#BF8C2C;}
	.st2{fill:none;}
</style>
<circle class="st0" cx="50" cy="50" r="50"/>
<g>
	<g>
		<path class="st1" d="M60.4,85l-9.3,4.3c-0.2-0.6-0.8-1-1.5-1c-0.7,0-1.2,0.4-1.5,1L38.9,85l0,10l9.3-4.4c0.3,0.5,0.8,0.9,1.4,0.9
			c0.6,0,1.2-0.4,1.4-0.9l9.3,4.4L60.4,85z"/>
		<path class="st1" d="M72.8,70.9c1.8,0.7,2.6,2.6,2.2,4.6c-0.4,1.7-1.3,2.9-2.8,3.7c-2.4,1.3-5,1.6-7.7,1.5
			c-5.1-0.3-9.5-2.1-12.6-6.3c-0.7-0.9-1.2-2-1.8-3c0,0-0.1,0-0.1,0.1c-3.1,7.2-10.4,9.8-16.8,9.2c-1.9-0.2-3.7-0.6-5.4-1.6
			c-2-1.1-3-3.3-2.6-5.4c0.2-1.3,0.8-2.1,2.2-2.8c-0.1,0.6-0.2,1.2-0.3,1.7c-0.1,2,1.1,3.3,3.1,3.4c1.8,0.1,3.4-0.5,4.5-2
			c1.3-1.7,2.4-3.5,3.5-5.3c1.3-2.1,2.9-3.7,5.1-4.7c2.2-0.9,4.3-0.9,6.4,0.3c0.3,0.2,0.8,0.2,1.1,0c2.2-1.3,4.5-1.2,6.7-0.2
			c2.1,1,3.6,2.5,4.8,4.5c1,1.7,2.1,3.5,3.3,5.1c1.1,1.5,2.6,2.3,4.5,2.3c2.4,0,3.7-1.6,3.2-4C72.9,71.7,72.9,71.3,72.8,70.9z"/>
		<path class="st1" d="M52,55.5c0,4,3.5,7.3,7.8,7.3s7.8-3.3,7.8-7.3c0-4-3.5-7.3-7.8-7.3S52,51.4,52,55.5z M55,55.5
			c0-2.5,2.1-4.5,4.8-4.5s4.8,2,4.8,4.5c0,2.5-2.1,4.5-4.8,4.5S55,57.9,55,55.5z"/>
		<g>
			<path class="st2" d="M50,13.8c-0.2-0.3-0.4-0.6-0.6-1c-0.1,0-0.2,0-0.3,0c-0.4,0.8-0.8,1.7-1.2,2.5c0,0,0.1,0.1,0.1,0.1
				C48.7,14.9,49.3,14.4,50,13.8z"/>
			<path class="st2" d="M51.2,16.5c-0.4,0.3-1.1,0.8-1.1,0.8l-1,0.8c0,0-1.6,1.3-2.5,1.9c-2.1,1.2-2.3,3.4-3.2,5.3
				c2.1-1.6,6.7-5.3,8.8-6.8C51.9,17.8,51.6,17.2,51.2,16.5z"/>
			<path class="st2" d="M54.5,24.4L54.5,24.4c0.1-0.1,0.2-0.4,0.2-0.5c-0.3-0.8-1.1-2.3-1.1-2.3l-2,1.2c-1.4,1-5.3,4.2-6.7,5.3
				c-2.8,2.2-5.5,4.4-6.6,7.8c-0.4,1.3-1.1,2.4-1.6,3.6C40.5,35.4,49.9,27.8,54.5,24.4z"/>
			<path class="st2" d="M61.9,39c-1.1,0.8-3.3,2.5-3.3,2.5s-1.3,1-1.7,1.3c-1.1,0.8-2.2,1.7-3.3,2.6c-0.5,0.5-1,1-1.5,1.5
				c0.1,0.1,0.1,0.1,0.2,0.2c2-0.4,4.1-0.5,5.7-1.9c1.5-1.3,3-2.4,4.5-3.6c0.2-0.2,0.4-0.5,0.3-0.8C62.5,40.2,62.2,39.6,61.9,39z"/>
			<path class="st2" d="M51.5,34.9c1-0.8,3.1-2.4,4.2-3.2c0-0.1,0.1-0.1,0.1-0.1c0.5-0.4,1-0.8,1.5-1.3c0.1-0.1,0.2-0.4,0.2-0.6
				c-0.3-0.8-0.7-1.5-1.1-2.3c0,0-2.2,1.6-2.6,1.9c-2,1.5-8.7,6.9-10.5,8.6c-1.9,1.8-3.6,3.8-5.6,5.8c1,0.5,1.7,0.9,2.4,1.3
				c0.4,0.3,0.6,0.1,0.9-0.2c1.1-1.4,2.1-2.8,3.4-4C46,39.3,49.8,36.4,51.5,34.9z"/>
			<path class="st2" d="M57.8,37.8c0.7-0.6,1.4-1.1,2.1-1.7c0.2-0.1,0.3-0.5,0.3-0.7c-0.2-0.6-0.6-1.3-0.9-1.9
				c-0.9,0.7-1.7,1.3-2.7,2c0,0,0,0,0,0c-1.4,1-5.1,3.5-5.1,3.5s-2.2,1.7-2.5,2c-0.7,0.8-1.5,1.4-2.2,2.2c-0.9,1-1.7,2.2-2.6,3.4
				c1.2,0.1,2.1,0.3,3,0.4c0.3,0,0.6-0.2,0.8-0.4c1.2-1.8,2.6-3.3,4.3-4.6C53.5,40.9,56.4,38.9,57.8,37.8z"/>
			<path class="st1" d="M63.4,40.3c-1.5-3-2.8-6-4.3-9c-3-6.4-6.1-12.8-9.1-19.2h0c0,0,0,0,0,0c1.5-0.6,2.7-1.2,4-1.7
				c-0.1-0.3-0.3-0.6-0.4-0.9c-0.9,0.1-1.7,0.2-3,0.4c1.1-1.3,1.9-2.3,2.6-3.2c-0.1-0.2-0.3-0.4-0.4-0.6c-0.8,0.4-1.6,0.7-1.9,0.9
				c-0.7-0.7-1.4-1.3-2.1-2c-0.2,0.2-0.4,0.4-0.6,0.6c0.2,0.8,0.3,1.6,0.5,2.5c-1.4-0.8-2.4-2.9-4.5-0.9c1.3,0.8,2.2,1.4,3.3,2
				c-1.3,0.1-2.2,0.2-3.2,0.3c0,0.3,0.1,0.5,0.1,0.8c2.6,0.6,3.8,0.9,4.1,1.7c0,0-0.1,0.1-0.1,0.1c-0.9,1.8-1.7,3.6-2.5,5.4
				c-3.4,7.4-6.8,14.8-10.2,22.2c-1,2.2-0.8,2.9,1,4.4c0.1,0.1,0.2,0.2,0.4,0.3c3.7,2.7,7.9,3.6,12.5,3.8c1.7-0.2,3.4-0.3,5-0.6
				c3.2-0.6,6-1.9,8.3-4.2C63.8,42.5,64,41.5,63.4,40.3z M49.1,12.9c0.1,0,0.2,0,0.3,0c0.2,0.3,0.4,0.6,0.6,1
				c-0.7,0.6-1.3,1.1-2,1.6c0,0-0.1-0.1-0.1-0.1C48.3,14.5,48.7,13.7,49.1,12.9z M46.7,20c0.9-0.5,2.5-1.9,2.5-1.9l1-0.8
				c0,0,0.7-0.5,1.1-0.8c0.3,0.7,0.6,1.3,1,2c-2.1,1.5-6.6,5.2-8.8,6.8C44.3,23.4,44.6,21.2,46.7,20z M36.7,39.6
				c0.5-1.2,1.2-2.4,1.6-3.6c1.2-3.4,3.9-5.6,6.6-7.8c1.4-1.1,5.2-4.2,6.7-5.3l2-1.2c0,0,0.8,1.5,1.1,2.3c0,0.1-0.1,0.3-0.2,0.5v0
				C49.9,27.8,40.5,35.4,36.7,39.6z M40.2,45.1c-0.7-0.4-1.5-0.8-2.4-1.3c1.9-2,3.7-4,5.6-5.8c1.8-1.7,8.6-7.1,10.5-8.6
				c0.4-0.3,2.6-1.9,2.6-1.9c0.4,0.8,0.8,1.5,1.1,2.3c0.1,0.1,0,0.4-0.2,0.6c-0.5,0.4-1,0.8-1.5,1.3c0,0-0.1,0.1-0.1,0.1
				c-1.1,0.8-3.2,2.4-4.2,3.2c-1.6,1.5-5.5,4.4-7,5.9c-1.2,1.3-2.3,2.7-3.4,4C40.8,45.2,40.6,45.4,40.2,45.1z M47.9,46.6
				c-0.1,0.2-0.5,0.4-0.8,0.4c-0.9-0.1-1.8-0.2-3-0.4c0.9-1.2,1.7-2.4,2.6-3.4c0.7-0.8,1.5-1.5,2.2-2.2c0.2-0.3,2.5-2,2.5-2
				s3.7-2.5,5.1-3.5c0,0,0,0,0,0c0.9-0.7,1.8-1.3,2.7-2c0.3,0.7,0.7,1.3,0.9,1.9c0.1,0.2-0.1,0.5-0.3,0.7c-0.7,0.6-1.4,1.1-2.1,1.7
				c-1.4,1.1-4.3,3.2-5.6,4.2C50.5,43.3,49.1,44.9,47.9,46.6z M62.4,41.5c-1.5,1.2-3.1,2.3-4.5,3.6c-1.7,1.4-3.7,1.5-5.7,1.9
				c-0.1-0.1-0.1-0.1-0.2-0.2c0.5-0.5,0.9-1.1,1.5-1.5c1.1-0.9,2.2-1.8,3.3-2.6c0.4-0.3,1.7-1.3,1.7-1.3s2.2-1.6,3.3-2.5
				c0.3,0.6,0.6,1.2,0.8,1.8C62.8,41,62.6,41.4,62.4,41.5z"/>
		</g>
	</g>
</g>
</svg>
