<?xml version="1.0" standalone="no"?>
<!DOCTYPE svg PUBLIC "-//W3C//DTD SVG 20010904//EN"
 "http://www.w3.org/TR/2001/REC-SVG-20010904/DTD/svg10.dtd">
<svg version="1.0" xmlns="http://www.w3.org/2000/svg"
 width="542.000000pt" height="542.000000pt" viewBox="0 0 542.000000 542.000000"
 preserveAspectRatio="xMidYMid meet">
<metadata>
Created by potrace 1.11, written by Peter Selinger 2001-2013
</metadata>
<g transform="translate(0.000000,542.000000) scale(0.100000,-0.100000)"
fill="#000000" stroke="none">
<path d="M2619 5234 c-14 -14 -15 -23 -2 -81 7 -36 12 -67 10 -69 -2 -2 -27
17 -57 41 -46 37 -62 45 -97 45 -29 0 -50 -7 -68 -23 l-26 -22 91 -55 92 -55
-44 -7 c-24 -3 -62 -7 -85 -7 -38 -1 -43 -4 -43 -24 0 -20 10 -25 87 -45 88
-22 130 -43 139 -66 3 -8 -158 -366 -357 -797 -199 -431 -368 -801 -375 -822
-31 -88 -11 -137 84 -211 163 -125 357 -193 621 -216 85 -8 130 -6 255 10 175
23 259 46 371 100 93 45 210 132 243 180 39 58 31 98 -52 271 -41 85 -173 363
-294 619 -121 256 -261 550 -311 654 -50 104 -90 190 -89 191 2 2 48 22 103
45 55 23 104 46 108 50 5 4 6 18 2 30 -7 21 -10 22 -86 15 -43 -4 -79 -4 -79
0 0 3 29 41 65 83 68 80 73 93 52 110 -10 8 -26 5 -64 -12 l-50 -24 -61 54
c-33 30 -62 54 -64 54 -2 0 -11 -7 -19 -16z m81 -478 c-1 -11 -80 -77 -101
-85 -6 -2 6 30 27 70 l36 73 19 -23 c11 -13 19 -28 19 -35z m113 -283 c-11 -7
-118 -90 -237 -184 -120 -94 -219 -169 -222 -167 -7 8 55 156 82 198 15 22 61
65 103 94 42 30 112 84 156 119 l80 64 29 -56 c28 -54 28 -56 9 -68z m157
-294 c0 -8 -21 -31 -47 -49 -185 -134 -658 -529 -842 -705 l-111 -107 29 63
c16 35 44 99 61 141 43 105 80 159 175 254 91 91 454 385 590 476 l90 60 27
-58 c16 -33 28 -66 28 -75z m130 -261 c17 -35 30 -68 30 -74 0 -14 -75 -79
-230 -198 -138 -107 -357 -285 -453 -369 -37 -32 -110 -113 -163 -178 -53 -65
-101 -119 -106 -119 -5 0 -43 18 -84 41 l-74 41 99 107 c192 205 286 290 632
568 144 116 309 243 316 243 2 0 17 -28 33 -62z m155 -328 c14 -27 25 -56 25
-64 0 -19 -76 -82 -293 -244 -202 -151 -275 -216 -352 -317 -31 -40 -63 -76
-71 -79 -14 -5 -165 12 -173 19 -8 9 99 146 179 229 98 102 182 169 405 323
88 61 180 127 205 147 25 19 46 35 47 35 2 1 14 -21 28 -49z m153 -321 c13
-31 17 -51 11 -62 -5 -9 -66 -60 -135 -114 -171 -133 -184 -142 -223 -159 -38
-16 -223 -55 -230 -48 -9 8 93 104 184 174 208 161 360 269 367 262 3 -4 16
-28 26 -53z"/>
<path d="M3180 2808 c-134 -21 -256 -111 -317 -236 -36 -71 -38 -81 -37 -166
1 -122 26 -185 106 -272 149 -159 389 -188 576 -70 61 38 138 130 163 194 17
43 23 78 23 148 1 85 -1 95 -37 166 -87 176 -271 267 -477 236z m170 -170 c33
-9 60 -27 101 -68 48 -47 59 -65 69 -112 40 -178 -131 -340 -314 -299 -200 45
-280 256 -151 399 48 54 91 79 158 91 44 9 63 7 137 -11z"/>
<path d="M413 2139 c-7 -7 -13 -23 -13 -35 0 -12 -5 -24 -11 -26 -7 -2 -10
-10 -8 -17 4 -10 10 -8 28 6 17 14 22 27 19 51 -2 27 -5 31 -15 21z"/>
<path d="M2409 1949 c-60 -14 -139 -48 -188 -81 -76 -53 -137 -124 -223 -262
-191 -306 -244 -354 -388 -361 -144 -6 -220 80 -198 223 5 30 6 57 4 60 -11
11 -77 -51 -98 -91 -15 -30 -21 -60 -21 -107 0 -218 211 -350 557 -350 188 1
348 40 496 123 106 60 250 205 311 315 l47 83 45 -79 c92 -158 194 -257 350
-338 291 -151 734 -137 922 28 79 69 116 209 81 302 -15 40 -84 116 -104 116
-5 0 -4 -29 2 -65 12 -82 -2 -132 -48 -173 -52 -45 -124 -59 -206 -38 -120 30
-160 72 -312 321 -114 186 -196 274 -308 328 -127 62 -249 66 -367 13 l-55
-26 -47 21 c-90 41 -181 55 -252 38z"/>
<path d="M2080 450 l0 -279 83 38 c45 21 160 75 255 120 95 44 175 81 178 81
3 0 17 -9 31 -20 35 -27 85 -26 119 3 l27 24 254 -120 c139 -66 256 -118 259
-114 10 10 17 547 7 547 -5 0 -113 -48 -239 -106 -298 -138 -276 -131 -307
-100 -15 15 -38 26 -52 26 -30 0 -85 -26 -85 -40 0 -6 -4 -10 -9 -10 -5 0
-121 52 -259 115 -138 63 -253 115 -256 115 -3 0 -6 -126 -6 -280z"/>
</g>
</svg>
